<svg id="_10" data-name="10" xmlns="http://www.w3.org/2000/svg" viewBox="0 0 512 338.88"><defs><style>.cls-1{fill:#374149;}</style></defs><title>step5-icon</title><path class="cls-1" d="M430,315.68V72.48h32.24V0H49.84V72.32h0v.16H82.08v243.2H64.65l-2.81,0a17.29,17.29,0,0,0,.32-2.93V222.48a17.46,17.46,0,0,0-17.44-17.36H40.4A17.46,17.46,0,0,0,23,222.48v90.24a16.91,16.91,0,0,0,.3,2.8c0,.05,0,.1,0,.16H0v23H0v.16H512v-23.2Zm-36.24-1.52H323.28v-111h70.48v111ZM365.28,160.24v.16H320.72V108.48h44.56Zm-87,101.68H233.76v-52h44.56v52Zm0-101.52H233.76V108.48h44.56V160.4Zm-87,101.52H146.8v-52h44.56v52Zm0-101.52H146.8V108.48h44.56V160.4Z"/><circle class="cls-1" cx="374.09" cy="258.3" r="9"/></svg>