<svg id="_2" data-name="2" xmlns="http://www.w3.org/2000/svg" viewBox="0 0 705.86 504.09"><defs><style>.cls-1{fill:#231815;}.cls-2{fill:#4b4b4b;}</style></defs><title>step1-icon</title><path class="cls-1" d="M591.84,181.73c-57.44-57.44-150.9-57.44-208.34,0s-57.44,150.9,0,208.34c50.74,50.74,129.57,56.65,186.86,17.75L658.5,496a27.74,27.74,0,1,0,39.24-39.23L609.6,368.59C648.48,311.29,642.57,232.46,591.84,181.73ZM562.78,361a106.22,106.22,0,1,1,0-150.22A106.33,106.33,0,0,1,562.78,361Z"/><path class="cls-2" d="M488.22,366.12A80.94,80.94,0,0,0,512,362.56V207a81.36,81.36,0,1,0-23.78,159.17Z"/><path class="cls-2" d="M488.22,456.12c-94.49,0-171.36-76.87-171.36-171.36,0-73.8,46.89-136.85,112.44-160.92L256,0,0,182.94V497.25H201.61V329.3H310.39v168H512V454.46A172.77,172.77,0,0,1,488.22,456.12Z"/></svg>