<?xml version="1.0" encoding="utf-8"?>
<!-- Generator: Adobe Illustrator 22.0.1, SVG Export Plug-In . SVG Version: 6.00 Build 0)  -->
<svg version="1.1" id="レイヤー_1" xmlns="http://www.w3.org/2000/svg" xmlns:xlink="http://www.w3.org/1999/xlink" x="0px"
	 y="0px" viewBox="0 0 40 40" style="enable-background:new 0 0 40 40;" xml:space="preserve">
<polygon points="36,19 36,36 4,36 4,4 21,4 21,0 0,0 0,4 0,4 0,36 0,36 0,40 40,40 40,40 40,40 40,19 "/>
<rect x="36" y="0" width="4" height="15"/>
<rect x="30.5" y="-5.5" transform="matrix(-1.836970e-16 1 -1 -1.836970e-16 34.517 -30.516)" width="4" height="15"/>
<rect x="27.3" y="-2.4" transform="matrix(0.7071 0.7071 -0.7071 0.7071 16.1464 -17.5823)" width="4" height="26.3"/>
<rect x="18.6" y="18.6" width="2.8" height="2.8"/>
</svg>
