<?xml version="1.0" encoding="utf-8"?>
<!-- Generator: Adobe Illustrator 22.0.1, SVG Export Plug-In . SVG Version: 6.00 Build 0)  -->
<svg version="1.1" id="レイヤー_2" xmlns="http://www.w3.org/2000/svg" xmlns:xlink="http://www.w3.org/1999/xlink" x="0px"
	 y="0px" viewBox="0 0 403.6 403.6" style="enable-background:new 0 0 403.6 403.6;" xml:space="preserve">
<style type="text/css">
	.st0{fill:#DF600E;}
	.st1{fill:#FFFFFF;}
</style>
<circle class="st0" cx="201.8" cy="201.8" r="201.8"/>
<g>
	
		<ellipse transform="matrix(1 -2.836958e-03 2.836958e-03 1 -0.5717 0.5733)" class="st1" cx="201.8" cy="201.8" rx="170.1" ry="170.5"/>
</g>
<g>
	
		<ellipse transform="matrix(1 -2.836958e-03 2.836958e-03 1 -0.5717 0.5733)" class="st1" cx="201.8" cy="201.8" rx="170.1" ry="170.5"/>
	<g>
		<path class="st0" d="M181.9,138.8c-0.1-28.1-16-50.8-35.6-50.8c-19.6,0.1-35.4,22.9-35.3,51c0.1,21.9,9.8,40.6,23.3,47.7
			l0.3,117.5c0,6.7,5.5,12.2,12.3,12.2h0c6.7,0,12.2-5.5,12.2-12.3l-0.3-117.5C172.3,179.4,181.9,160.7,181.9,138.8z"/>
		<g>
			<path class="st0" d="M278.3,88.9l0.2,66.9c0,8.1-6.6,14.7-14.6,14.7l-9.4,0c-8.1,0-14.7-6.6-14.7-14.6L239.5,89
				c-9.5,4.3-16.1,13.8-16,24.8l0.1,47.4c0,13.6,10.2,24.9,23.4,26.8l0.3,117.2c0,6.7,5.5,12.2,12.3,12.2h0
				c6.7,0,12.2-5.5,12.2-12.3l-0.3-117.2c13.1-1.9,23.2-13.3,23.2-26.9l-0.1-47.4C294.4,102.6,287.7,93.1,278.3,88.9z"/>
			<path class="st0" d="M255.6,161.1l5.9,0c3,0,5.5-2.5,5.5-5.5l-0.2-63.8c0-3-2.5-5.5-5.5-5.5l-5.9,0c-3,0-5.5,2.5-5.5,5.5
				l0.2,63.8C250.1,158.7,252.6,161.1,255.6,161.1z"/>
		</g>
	</g>
</g>
</svg>
