<?xml version="1.0" encoding="utf-8"?>
<!-- Generator: Adobe Illustrator 22.0.1, SVG Export Plug-In . SVG Version: 6.00 Build 0)  -->
<svg version="1.1" id="_x32_" xmlns="http://www.w3.org/2000/svg" xmlns:xlink="http://www.w3.org/1999/xlink" x="0px" y="0px"
	 viewBox="0 0 481.6 538" style="enable-background:new 0 0 481.6 538;" xml:space="preserve">
<style type="text/css">
	.st0{fill:#4B4B4B;}
</style>
<g>
	<path class="st0" d="M481.6,538H0l5.9-76.3L6,461c5-27.5,23.1-50.9,48.4-62.5l0.5-0.2l90.2-36.9c9.7-4.6,16-14.4,16-25.2v-13.3
		c0-4.1-0.6-8.1-1.8-12.1c-5.3-7.3-17.3-25.4-28.5-47.2c-19.8-38.8-29.8-74.1-29.8-105.2c0-43.9,13.8-83.9,39-112.8
		C165.8,16.2,201.5,0,240.8,0s75,16.2,100.6,45.6c25.1,28.9,39,68.9,39,112.8c0,68-49.3,140.1-58.4,152.8c-1,3.7-1.6,7.7-1.6,11.7
		v13.3c0,10.8,6.3,20.7,16,25.3l90.4,36.9l0.3,0.1c25.4,11.7,43.5,35,48.5,62.4l0.1,0.7L481.6,538z M28.1,512h425.4l-3.7-47.1
		c-3.6-18.7-16-34.6-33.4-42.7l-90.4-36.9l-0.3-0.1c-19.1-8.8-31.4-28-31.4-49v-13.3c0-7.4,1.2-14.8,3.4-21.7l0.7-2l1.2-1.7
		c0.5-0.7,54.7-74.3,54.7-139.1c0-37.6-11.6-71.6-32.6-95.7C301.2,39,272.5,26,240.8,26s-60.4,13-81,36.6
		c-21,24.1-32.6,58.1-32.6,95.7c0,61.3,48.8,131,53.8,137.9l1.4,1.4l1,2.9c2.5,7.2,3.7,14.7,3.7,22.2v13.3c0,21-12.3,40.2-31.4,49
		l-0.5,0.2l-90.3,36.9c-17.3,8-29.7,24-33.3,42.8L28.1,512z"/>
</g>
</svg>
