<?xml version="1.0" encoding="utf-8"?>
<!-- Generator: Adobe Illustrator 22.0.1, SVG Export Plug-In . SVG Version: 6.00 Build 0)  -->
<svg version="1.1" id="レイヤー_2" xmlns="http://www.w3.org/2000/svg" xmlns:xlink="http://www.w3.org/1999/xlink" x="0px"
	 y="0px" viewBox="0 0 403.6 403.6" style="enable-background:new 0 0 403.6 403.6;" xml:space="preserve">
<style type="text/css">
	.st0{fill:#DF600E;}
	.st1{fill:#FFFFFF;}
</style>
<circle class="st0" cx="201.8" cy="201.8" r="201.8"/>
<g>

		<ellipse transform="matrix(1 -2.836958e-03 2.836958e-03 1 -0.5717 0.5733)" class="st1" cx="201.8" cy="201.8" rx="170.1" ry="170.5"/>
</g>
<g>
	<g>
		<path class="st0" d="M105,180.7h-0.7c-7.6,0-13.7-6.1-13.7-13.7v-25.7h28.2v25.5C118.8,174.5,112.6,180.7,105,180.7z"/>
		<path class="st0" d="M143.9,180.7h-0.7c-7.6,0-13.7-6.1-13.7-13.7v-25.7h28.2v25.5C157.7,174.5,151.6,180.7,143.9,180.7z"/>
		<path class="st0" d="M183.1,180.7h-0.7c-7.6,0-13.7-6.1-13.7-13.7v-25.7h28.2v25.5C196.9,174.5,190.7,180.7,183.1,180.7z"/>
		<path class="st0" d="M221.8,180.7h-0.7c-7.6,0-13.7-6.1-13.7-13.7v-25.7h28.2v25.5C235.6,174.5,229.4,180.7,221.8,180.7z"/>
		<path class="st0" d="M260.2,180.7h-0.7c-7.6,0-13.7-6.1-13.7-13.7v-25.7h28.2v25.5C274.1,174.5,267.9,180.7,260.2,180.7z"/>
		<path class="st0" d="M299.2,180.7h-0.7c-7.6,0-13.7-6.1-13.7-13.7v-25.7H313v25.5C313,174.5,306.8,180.7,299.2,180.7z"/>
	</g>
	<path class="st0" d="M293.9,191.2c-6,0-11.1-3.3-13.9-8.1c-0.4-0.8-1.3-1.3-2.1-1.3c-0.9,0-1.7,0.5-2.1,1.2c-2.8,4.8-8,8.1-14,8.1
		h-5.9c-6,0-11.1-3.3-13.9-8.1c-0.4-0.8-1.3-1.3-2.1-1.3h-0.1c-0.9,0-1.7,0.5-2.1,1.2c-2.8,4.8-8,8.1-14,8.1h-5.9
		c-6,0-11.1-3.3-13.9-8.1c-0.4-0.8-1.3-1.3-2.1-1.3c-0.9,0-1.7,0.5-2.1,1.2c-2.8,4.8-8,8.1-14,8.1h-5.9c-6,0-11.1-3.3-13.9-8.1
		c-0.4-0.8-1.3-1.3-2.1-1.3h0c-0.9,0-1.7,0.5-2.1,1.2c-2.8,4.8-8,8.1-14,8.1h-5.9c-6,0-11.1-3.3-13.9-8.1c-0.4-0.8-1.3-1.3-2.1-1.3
		h0c-0.9,0-1.7,0.5-2.1,1.2c-2.8,4.8-8,8.1-14,8.1h-0.8v116c0,0,0,0,0,0h48.6v-74.7h89.3v74.7h48.6V191.2H293.9z"/>
	<polygon class="st0" points="287.2,96.3 116.4,96.3 90.8,134.5 312.9,134.5 	"/>
</g>
</svg>
