<svg xmlns="http://www.w3.org/2000/svg" width="19.312" height="21.94" viewBox="0 0 19.312 21.94">
  <defs>
    <style>
      .cls-1 {
        fill: none;
        stroke: #fff;
        stroke-width: 2px;
        fill-rule: evenodd;
      }
    </style>
  </defs>
  <path id="mause.svg" class="cls-1" d="M687.983,1286.99s-6.293-9.74-6.154-10.74a1.26,1.26,0,0,1,.56-1.13,4.721,4.721,0,0,1,1.678,0,14.454,14.454,0,0,1,2.238,2.26v-9.04a1.789,1.789,0,0,1,1.678-1.13,2.249,2.249,0,0,1,1.678,1.13v5.65s0.15-1.76,1.678-1.69,1.678,2.26,1.678,2.26a2.278,2.278,0,0,1,1.678-1.13c1.036-.01,1.119,2.26,1.119,2.26a1.8,1.8,0,0,1,1.678-1.13,1.628,1.628,0,0,1,1.678,1.13v7.34s-2.468,3.61-3.915,3.96S687.983,1286.99,687.983,1286.99Z" transform="translate(-680.844 -1266.22)"/>
</svg>
