<?xml version="1.0" encoding="utf-8"?>
<!-- Generator: Adobe Illustrator 22.0.1, SVG Export Plug-In . SVG Version: 6.00 Build 0)  -->
<svg version="1.1" id="レイヤー_1" xmlns="http://www.w3.org/2000/svg" xmlns:xlink="http://www.w3.org/1999/xlink" x="0px"
	 y="0px" viewBox="0 0 27 34" style="enable-background:new 0 0 27 34;" xml:space="preserve">
<style type="text/css">
	.st0{fill:#FFFFFF;stroke:#444444;stroke-miterlimit:10;}
	.st1{fill:#444444;}
</style>
<g>
	<path class="st0" d="M4,33.5h19c1.9,0,3.5-1.6,3.5-3.5V4c0-1.9-1.6-3.5-3.5-3.5H9.7V6c0,2.2-1.8,4-4,4H0.5v20
		C0.5,31.9,2.1,33.5,4,33.5z"/>
	<path class="st0" d="M9.2,0.5"/>
	<path class="st0" d="M0.5,9.2"/>
</g>
<polygon class="st1" points="0.1,9.6 9.2,0 9.8,5.1 8.5,9.2 4.5,10 "/>
<g>
	<path d="M8.9,14.5c1.2,0,1.7,0.5,1.7,1.4c0,0.9-0.6,1.4-1.8,1.4h-1v2.2H7.2v-5H8.9z M7.8,16.9h1c0.8,0,1.2-0.3,1.2-0.9
		c0-0.6-0.3-0.9-1.1-0.9h-1V16.9z"/>
	<path d="M13.2,14.5c1.5,0,2.3,0.8,2.3,2.5s-1,2.5-2.4,2.5h-1.4v-5H13.2z M12.3,19h0.8c1.1,0,1.8-0.6,1.8-2c0-1.4-0.7-2-1.8-2h-0.9
		V19z"/>
	<path d="M19.8,15h-2.5v1.6h1.9v0.5h-1.9v2.4h-0.6v-5h3.1V15z"/>
</g>
</svg>
