<svg xmlns="http://www.w3.org/2000/svg" width="42px" height="50px" viewBox="0 0 403.6 481.9">
  <title>pin_spot</title>
  <circle cx="201.8" cy="201.8" r="201.8" fill="#df600e"/>
  <polygon points="202.4 481.9 98.1 288.5 201.5 164.5 305.5 287.9 202.4 481.9" fill="#df600e"/>
  <ellipse cx="201.8" cy="201.8" rx="170.1" ry="170.5" transform="translate(-0.57 0.57) rotate(-0.16)" fill="#fff"/>
  <g>
    <g>
      <path d="M105,180.7h-.7A13.66,13.66,0,0,1,90.6,167V141.3h28.2v25.5A13.85,13.85,0,0,1,105,180.7Z" fill="#df600e"/>
      <path d="M143.9,180.7h-.7A13.66,13.66,0,0,1,129.5,167V141.3h28.2v25.5A13.79,13.79,0,0,1,143.9,180.7Z" fill="#df600e"/>
      <path d="M183.1,180.7h-.7A13.66,13.66,0,0,1,168.7,167V141.3h28.2v25.5A13.85,13.85,0,0,1,183.1,180.7Z" fill="#df600e"/>
      <path d="M221.8,180.7h-.7A13.66,13.66,0,0,1,207.4,167V141.3h28.2v25.5A13.85,13.85,0,0,1,221.8,180.7Z" fill="#df600e"/>
      <path d="M260.2,180.7h-.7A13.66,13.66,0,0,1,245.8,167V141.3H274v25.5A13.72,13.72,0,0,1,260.2,180.7Z" fill="#df600e"/>
      <path d="M299.2,180.7h-.7A13.66,13.66,0,0,1,284.8,167V141.3H313v25.5A13.85,13.85,0,0,1,299.2,180.7Z" fill="#df600e"/>
    </g>
    <path d="M293.9,191.2a16.06,16.06,0,0,1-13.9-8.1,2.39,2.39,0,0,0-4.2-.1,16.22,16.22,0,0,1-14,8.1h-5.9A16.06,16.06,0,0,1,242,183a2.45,2.45,0,0,0-2.1-1.3h-.1a2.44,2.44,0,0,0-2.1,1.2,16.22,16.22,0,0,1-14,8.1h-5.9a16.06,16.06,0,0,1-13.9-8.1,2.39,2.39,0,0,0-4.2-.1,16.22,16.22,0,0,1-14,8.1h-5.9a16.06,16.06,0,0,1-13.9-8.1,2.45,2.45,0,0,0-2.1-1.3h0a2.44,2.44,0,0,0-2.1,1.2,16.22,16.22,0,0,1-14,8.1h-5.9a16.06,16.06,0,0,1-13.9-8.1,2.45,2.45,0,0,0-2.1-1.3h0a2.44,2.44,0,0,0-2.1,1.2,16.22,16.22,0,0,1-14,8.1h-.8v116h48.6V232h89.3v74.7h48.6V191.2Z" fill="#df600e"/>
    <polygon points="287.2 96.3 116.4 96.3 90.8 134.5 312.9 134.5 287.2 96.3" fill="#df600e"/>
  </g>
</svg>
