<svg xmlns="http://www.w3.org/2000/svg" width="42px" height="50px" viewBox="0 0 403.6 481.9">
  <title>pin_restaurant</title>
  <circle cx="201.8" cy="201.8" r="201.8" fill="#df600e"/>
  <polygon points="202.4 481.9 98.1 288.5 201.5 164.5 305.5 287.9 202.4 481.9" fill="#df600e"/>
  <g>
    <ellipse cx="201.8" cy="201.8" rx="170.1" ry="170.5" transform="translate(-0.57 0.57) rotate(-0.16)" fill="#fff"/>
    <g>
      <path d="M181.9,138.8c-.1-28.1-16-50.8-35.6-50.8s-35.4,22.9-35.3,51c.1,21.9,9.8,40.6,23.3,47.7l.3,117.5a12.27,12.27,0,0,0,12.3,12.2h0a12.27,12.27,0,0,0,12.2-12.3l-.3-117.5C172.3,179.4,181.9,160.7,181.9,138.8Z" fill="#df600e"/>
      <g>
        <path d="M278.3,88.9l.2,66.9a14.7,14.7,0,0,1-14.6,14.7h-9.4a14.7,14.7,0,0,1-14.7-14.6L239.5,89a27,27,0,0,0-16,24.8l.1,47.4A27.23,27.23,0,0,0,247,188l.3,117.2a12.27,12.27,0,0,0,12.3,12.2h0a12.27,12.27,0,0,0,12.2-12.3l-.3-117.2A27.24,27.24,0,0,0,294.7,161l-.1-47.4A27.69,27.69,0,0,0,278.3,88.9Z" fill="#df600e"/>
        <path d="M255.6,161.1h5.9a5.55,5.55,0,0,0,5.5-5.5l-.2-63.8a5.55,5.55,0,0,0-5.5-5.5h-5.9a5.55,5.55,0,0,0-5.5,5.5l.2,63.8A5.48,5.48,0,0,0,255.6,161.1Z" fill="#df600e"/>
      </g>
    </g>
  </g>
</svg>
